<svg version="1.0" xmlns="http://www.w3.org/2000/svg" width="768" height="768" viewBox="0 0 576 576"><path d="M261.5 1.5a222.4 222.4 0 0 0-27 5l-3 .7 2.5 1 4 1.3a207.8 207.8 0 0 1 84.4 51c9.1 9.1 20.6 22.6 23.5 27.7.9 1.6 1.9 2.8 2.4 2.8.4 0 .7.7.7 1.5s.3 1.5.8 1.5c.4 0 1.9 2.1 3.2 4.7a43 43 0 0 0 3.1 5.3c2.5 1.9 17.6 36.9 19.5 45a83.9 83.9 0 0 1 2.8 11.7l1 4 1.1 4.8.9 5.2c.9 4.6 1.9 17.2 2 25.5.1 4.9.5 8.8.9 8.8.5 0 .6.4.2.9-.3.6-.7 4.9-1 9.8a177.7 177.7 0 0 1-1.9 19.8 338.9 338.9 0 0 1-10.2 44 441.8 441.8 0 0 1-43.7 93.6 2 2 0 0 0-.9 1.5 54.2 54.2 0 0 1-7.6 13.1 70.3 70.3 0 0 1-4.5 7.7 260.8 260.8 0 0 0-9.7 15.8c0 .8 7.6 1 23.3.8 3.7-.1 7.1.1 7.5.4.4.3 1.4.1 2-.3.7-.4 3.3-.5 5.7-.1 2.5.4 4.7.5 4.9.2a38 38 0 0 1 11.6-.2c0 .3 2.7.5 6 .5s6-.2 6-.5 5.4-.3 12.1 0c6.6.3 12.2.3 12.4.1.6-.5 11.5-.7 11.5-.1 0 .3 2.8.4 6.2.2l7.3-.3H432l30.9.1c3.6.1 6.8.3 7.3.6.4.3.8.2.8-.3 0-.6 8.1-.7 25.5-.2.6.1 2.8 0 5-.1a39 39 0 0 1 5 0c.6.1 3.1.2 5.8.1 4.6-.1 4.8-.2 6.6-4.4 4.5-9.9 5.5-12.3 5.7-13.2l3.7-11.5a306.4 306.4 0 0 0 12.2-51.5l.9-7c2.2-14.6 2.8-53.8 1.2-70a294.6 294.6 0 0 0-4.2-30.9l-1-4.6a378.2 378.2 0 0 0-15.2-51.5 315.7 315.7 0 0 0-25.2-50.2c0-.6-.9-1.8-2-2.8a256.7 256.7 0 0 0-17.5-24.2l-5-6a361.2 361.2 0 0 0-46.3-43c-.7-.7-1.7-1.3-2.2-1.3-.5 0-1.5-.6-2.2-1.3A76.3 76.3 0 0 0 407 33a282.4 282.4 0 0 0-56.7-24.5l-7.8-1.9c-8.7-2.2-13-3-20.5-4l-8-1.2c-7-1.2-43.6-1.1-52.5.1z"/><path d="M162.8 64.5c-.2.2-1.9.6-3.8.9a80 80 0 0 0-17.8 4.1c-7.2 2.4-19.4 7.9-21.7 9.7-.5.5-3.9 2.7-7.4 5.1a152.4 152.4 0 0 0-28.2 27.2 246 246 0 0 0-40.8 89.4 314 314 0 0 0-7.6 38.6l-1 7.4a443.6 443.6 0 0 0-1.2 70.6 326 326 0 0 0 4.3 30.9l1 4.6a312.9 312.9 0 0 0 38.6 98.7c.1.5.6 1.2 1 1.8.5.5 3.6 5 7 10A261 261 0 0 0 201.5 559a222.5 222.5 0 0 0 27.9 9.5c1.8.8 3.6 1.2 3.8.9.3-.2 1.6 0 3 .5s4 1.2 5.9 1.5l5.9 1.1 6.5 1 7.5 1.1c5.9 1 42.1 1.2 48.5.3l9.5-1.2a196.8 196.8 0 0 0 29.5-6.1c1.1-.2 4.3-1.1 7-2.1a225.2 225.2 0 0 0 44.7-19.5c1 0 12.8-6.8 13.8-7.9a229.6 229.6 0 0 0 29.3-22c9.9-8.6 32.4-32.3 33.5-35.2.4-1-.2-1-13.3-.9-8.9 0-26.3 0-27.4-.2l-1.1.1c-1.3.5-12 .5-12 .1 0-.3-2.8-.4-6.2-.2l-7.3.3H400l-30.9-.1c-3.6-.1-6.8-.3-7.3-.6-.4-.3-.8-.2-.8.3 0 .4-5.5.7-12.2.5-6.8-.2-13.9-.3-15.8-.2-1.9.1-4.2.2-5 .1h-19.5l-5.2.1-12.5-.1a152 152 0 0 1-25-.7c-.4-.3-.8-.2-.8.3 0 .4-4.8.6-10.6.3s-10.7-.3-10.9-.1c-.6.5-11.5.7-11.5.1 0-.3-2.8-.4-6.2-.2l-7.3.3h-5l-6-.1c-1.1.1-6.8.1-12.8 0l-11.5.1h-4.1l-3.3-.1 2.8-3.3c1.6-1.8 4-4.8 5.4-6.7 1.4-1.9 3.3-4.2 4.3-5.2.9-1 1.7-2.2 1.7-2.7s.3-1.1.8-1.3c.4-.2 3.2-3.5 6.2-7.3l6-7.5a48 48 0 0 0 3-4 460.6 460.6 0 0 0 21.8-28c3.1-4.1 5.8-7.7 6.2-8a950.8 950.8 0 0 0 41.4-61.2c5.6-8.9 17.2-31.1 22.5-43.3l3.6-8a287.6 287.6 0 0 0 16-54.5 183 183 0 0 0 1.9-30.5c0-20.8-1.8-32.5-8-49.5a152 152 0 0 0-14.4-29.1c0-.5-.6-1.7-1.4-2.6l-7.5-9.4c-18.6-23.5-50.5-44.1-76.6-49.4l-4.5-1-4.5-1-6-1.2c-2.5-.6-33.2-1.3-33.7-.8z"/></svg>