<svg xmlns="http://www.w3.org/2000/svg"><style>:root{visibility:hidden}:target{visibility:visible}</style><svg viewBox="0 0 13 16" fill="none" id="address"><path fill-rule="evenodd" clip-rule="evenodd" d="M11.8 6.5c0 2.33-1.37 4.42-2.91 6.01a17.54 17.54 0 0 1-2.39 2.05 16.93 16.93 0 0 1-2.39-2.05C2.57 10.91 1.2 8.83 1.2 6.5a5.3 5.3 0 1 1 10.6 0Zm1.2 0c0 5.59-6.5 9.5-6.5 9.5S0 12.09 0 6.5a6.5 6.5 0 0 1 13 0Zm-4.2 0a2.3 2.3 0 1 1-4.6 0 2.3 2.3 0 0 1 4.6 0Zm1.2 0a3.5 3.5 0 1 1-7 0 3.5 3.5 0 0 1 7 0Z" fill="#7859CF"></path></svg><svg viewBox="0 0 52 56" fill="none" id="adv-cheerfulness"><path fill-rule="evenodd" clip-rule="evenodd" d="M24.97 35.2 43.13 4 9 30.68l15.97 4.52Zm6.06-10.4L12.87 56 47 29.32 31.03 24.8Z" fill="#F0EBFF"></path><path fill-rule="evenodd" clip-rule="evenodd" d="M39.13 0 5 26.68l15.97 4.52L8.87 52 43 25.32 27.03 20.8 39.13 0Zm1.7 25.75-15.32-4.34L35.66 4 7.16 26.25l15.33 4.34L12.34 48l28.5-22.26Z" fill="#7859CF"></path></svg><svg viewBox="0 0 52 56" fill="none" id="adv-convenience"><path d="M4 4h48l-4 44-20 8-20-8L4 4Z" fill="#F0EBFF"></path><path fill-rule="evenodd" clip-rule="evenodd" d="M1 0H0l.1 1L4 44l20 8 20-8 3.9-43 .1-1H1Zm.1 1 .36 4h45.08l.37-4H1.1Zm40.8 5H6.1l.1 1.13-.5.05-.5.04L5.09 6H1.55l3.39 37.3L24 50.92l19.06-7.62L46.45 6h-3.54l-.1 1.22-.5-.04-.5-.05.1-1.13ZM6.1 11.62l-.5.04.39 4.45.5-.05.5-.04-.4-4.45-.5.05Zm.78 8.88-.5.05.4 4.44.5-.04.5-.05-.4-4.44-.5.04Zm.8 8.89-.5.04.4 4.45.5-.05.49-.04-.4-4.45-.5.05Zm.79 8.88-.5.05.2 2.22 1.98.8.18-.46.2-.46-1.42-.58-.15-1.61-.5.04Zm5.82 4.23-.19.46 3.96 1.62.2-.47.18-.46-3.96-1.61-.19.46Zm7.92 3.23-.19.46L24 47l1.98-.8-.19-.47-.19-.46-1.6.65-1.6-.65-.19.46Zm7.54-1.62.19.47 3.96-1.62-.2-.46-.18-.46-3.96 1.61.19.46Zm7.92-3.23.18.47 1.98-.81.2-2.22-.5-.05-.5-.04-.14 1.61-1.41.58.19.46Zm2.26-7.05.5.05.4-4.45-.5-.04-.5-.05-.4 4.45.5.04Zm.8-8.88.49.04.4-4.44-.5-.05-.5-.04-.4 4.44.5.05Zm.78-8.89.5.05.4-4.45-.5-.04-.5-.05-.4 4.45.5.04Z" fill="#7859CF"></path></svg><svg viewBox="0 0 52 56" fill="none" id="adv-eco"><path fill-rule="evenodd" clip-rule="evenodd" d="M41.7 22.12C42.49 15.56 43.2 9.35 49 4c-26.5 0-34.15 8.13-38 14-8.54 13.04-.91 25.67.71 28.09A808.64 808.64 0 0 0 7 55.56l.88.44a825.82 825.82 0 0 1 4.63-9.32c2.6.87 14.45 4.19 21.99-4.68 5.66-6.66 6.45-13.44 7.2-19.88Z" fill="#F0EBFF"></path><path fill-rule="evenodd" clip-rule="evenodd" d="M8.23 41.05C12.2 33.26 16.7 25.1 21.27 20l.73.66c-4.57 5.08-9.07 13.3-13.03 21.12A26.2 26.2 0 0 0 16.09 43c4.38.12 9.66-.96 13.65-5.65 5.46-6.42 6.22-12.94 6.98-19.4l.02-.13c.68-5.81 1.38-11.64 5.87-16.8-11.79.23-19.48 2.16-24.67 4.68a23.8 23.8 0 0 0-10.1 8.85A22.6 22.6 0 0 0 4.9 33.43a28.93 28.93 0 0 0 3.33 7.63Zm-.52 1.04C6.1 39.67-1.54 27.04 7 14 10.78 8.24 18.23.3 43.55 0H45a22 22 0 0 0-1.02 1c-4.87 5.12-5.55 10.96-6.27 17.12-.76 6.44-1.55 13.22-7.21 19.88-7.54 8.87-19.4 5.55-21.99 4.68L5.86 48c-.68 1.4-1.34 2.73-1.98 4L3 51.56l1.97-3.96 2.74-5.51Z" fill="#7859CF"></path></svg><svg viewBox="0 0 52 56" fill="none" id="adv-speed"><path fill-rule="evenodd" clip-rule="evenodd" d="M24 4h8v3h-3v3.02c3.82.16 7.39 1.26 10.5 3.06 1.85-1.93 6.26.17 4.76 3.66l-.1-.1a23 23 0 1 1-32.43.1c-2.02-3.03 2.59-6.16 4.77-3.66 3.11-1.8 6.68-2.9 10.5-3.06V7h-3V4Z" fill="#F0EBFF"></path><path fill-rule="evenodd" clip-rule="evenodd" d="M27 1h-6v1h6V1Zm-2 2h3V0h-8v3h3v3.02a22.87 22.87 0 0 0-9.6 2.57l-.15-.17c-1.53-1.76-3.85-1.44-5.3-.4a4.14 4.14 0 0 0-1.6 2.26c-.26.96-.1 2.02.56 3.01l.12.19a23 23 0 1 0 33.99.05l.16-.4c.47-1.08.5-2.13.17-3.04-.32-.9-.95-1.6-1.68-2.06-1.41-.89-3.54-1.06-4.9.36l-.17.2A22.87 22.87 0 0 0 25 6.01V3Zm-1 4c-3.86 0-7.49 1-10.64 2.74l-.36.2a22 22 0 1 0 22 0l-.36-.2A21.9 21.9 0 0 0 24 7ZM12.5 9.08a23.08 23.08 0 0 0-4.76 3.66 2.98 2.98 0 0 1-.44-.98c-.55-2.31 2.31-4.31 4.35-3.34.3.15.6.37.85.66Zm23 0a23.08 23.08 0 0 1 4.76 3.66c.17-.4.26-.77.3-1.12.2-2.33-2.32-3.74-4.1-3.14-.36.12-.69.32-.96.6ZM24 31a2 2 0 0 0 .86-3.8l-.91-.2a2 2 0 0 0 .05 4Zm-.64-4.93-1.34-4.94-.04-.14.05-.15 1.5-4.5.47-1.42.47 1.42 1.5 4.5.05.15-.04.14-1.34 4.94.37.1 7.55-13.42.88.5-7.55 13.42a3 3 0 1 1-2.53-.6ZM23.02 21l.98 3.6.98-3.59-.98-2.93-.98 2.93Z" fill="#7859CF"></path></svg><svg viewBox="0 0 10 6" fill="none" id="arrow-down"><path fill-rule="evenodd" clip-rule="evenodd" d="M0 1.2 1.24 0 5 3.62 8.76 0 10 1.2 5 6 0 1.2Z" fill="#7859CF"></path></svg><svg viewBox="0 0 11 20" fill="none" id="arrow-left"><path fill-rule="evenodd" clip-rule="evenodd" d="M9.72 0 11 1.32 2.57 10 11 18.68 9.72 20 0 10 9.72 0Z" fill="#7859CF"></path></svg><svg viewBox="0 0 20 16" fill="none" id="cart-alter"><path fill-rule="evenodd" clip-rule="evenodd" d="M13.67 13.52v-.02h1.35l-.03.21A2.67 2.67 0 0 1 12.35 16h-8.7A2.67 2.67 0 0 1 1 13.71L.19 8 0 6.67h4.55l-.22-2.68A3.68 3.68 0 0 1 11.62 3h-1.37a2.35 2.35 0 0 0-4.59.88l.23 2.79H9.5V8H6.06l.22 2.67h3.44l.01-.17h1.34l-.01.17h1.44V12h-1.55l-.23 2.67h1.63c.67 0 1.23-.5 1.32-1.15ZM4.72 8H1.54l.38 2.67h3.02L4.72 8Zm1.9 6.67L6.38 12H9.6l-.22 2.67H6.6ZM5.04 12l.23 2.67H3.65c-.67 0-1.23-.5-1.32-1.15L2.1 12h2.94Zm10.75-2V7.2H13V5.8h2.8V3h1.4v2.8H20v1.4h-2.8V10h-1.4Z" fill="white"></path></svg><svg viewBox="0 0 16 16" fill="none" id="cart"><path fill-rule="evenodd" clip-rule="evenodd" d="m5.66 3.88.23 2.79h4.22l.23-2.8a2.35 2.35 0 1 0-4.68 0Zm5.78 2.79.23-2.68a3.68 3.68 0 1 0-7.34 0l.23 2.68H0L.19 8l.82 5.71A2.67 2.67 0 0 0 3.65 16h8.7c1.33 0 2.46-.98 2.64-2.29L15.81 8 16 6.67h-4.55ZM11.34 8h-.06l-.22 2.67h3.02L14.46 8h-3.13Zm-1.4 0H6.06l.22 2.67h3.44L9.94 8ZM4.72 8H1.54l.38 2.67h3.02L4.72 8Zm1.9 6.67L6.38 12H9.6l-.22 2.67H6.6ZM10.94 12l-.23 2.67h1.63c.67 0 1.23-.5 1.32-1.15L13.9 12h-2.94Zm-5.9 0 .23 2.67H3.65c-.67 0-1.23-.5-1.32-1.15L2.1 12h2.94Z" fill="#333333"></path></svg><svg viewBox="0 0 16 16" fill="none" id="cross"><path fill-rule="evenodd" clip-rule="evenodd" d="M7.03 8 2 2.97 2.97 2 8 7.03 13.03 2l.97.97L8.97 8 14 13.03l-.97.97L8 8.97 2.97 14 2 13.03 7.03 8Z" fill="#333333"></path></svg><svg viewBox="0 0 16 16" fill="none" id="menu-close"><path fill-rule="evenodd" clip-rule="evenodd" d="M7.03 8 2 2.97 2.97 2 8 7.03 13.03 2l.97.97L8.97 8 14 13.03l-.97.97L8 8.97 2.97 14 2 13.03 7.03 8Z" fill="#333333"></path></svg><svg viewBox="0 0 16 12" fill="none" id="menu"><path fill-rule="evenodd" clip-rule="evenodd" d="M0 0h16v1.5H0V0Zm0 5.25h16v1.5H0v-1.5Zm16 5.25H0V12h16v-1.5Z" fill="#333333"></path></svg><svg viewBox="0 0 16 16" fill="none" id="profile"><path fill-rule="evenodd" clip-rule="evenodd" d="M10.67 4a2.67 2.67 0 1 1-5.34 0 2.67 2.67 0 0 1 5.34 0ZM12 4a4 4 0 1 1-8 0 4 4 0 0 1 8 0Zm-8.8 8.31A7.55 7.55 0 0 1 8 10.67c1.84 0 3.56.6 4.8 1.64A4.83 4.83 0 0 1 14.67 16H16c0-1.77-.84-3.46-2.34-4.71A8.88 8.88 0 0 0 8 9.33c-2.12 0-4.16.7-5.66 1.96A6.16 6.16 0 0 0 0 16h1.33c0-1.33.63-2.66 1.87-3.69Z" fill="#333333"></path></svg><svg viewBox="0 0 40 40" fill="none" id="social-ok"><path fill-rule="evenodd" clip-rule="evenodd" d="M11.4 11.4C10 12.81 10 15.07 10 19.6v.91c0 4.46 0 6.7 1.4 8.09 1.41 1.4 3.67 1.4 8.2 1.4h.91c4.46 0 6.7 0 8.09-1.4 1.4-1.41 1.4-3.67 1.4-8.2v-.91c0-4.46 0-6.7-1.4-8.09-1.41-1.4-3.67-1.4-8.2-1.4h-.91c-4.46 0-6.7 0-8.09 1.4Zm8.62 8.8a3.03 3.03 0 1 0-.01-6.07 3.03 3.03 0 0 0 0 6.07Zm0-4.28a1.25 1.25 0 0 1 0 2.5c-.69 0-1.25-.56-1.25-1.25a1.23 1.23 0 0 1 1.25-1.25Zm1.21 6.76a5.73 5.73 0 0 0 1.76-.72.88.88 0 0 0 .28-1.24.88.88 0 0 0-1.24-.27 3.85 3.85 0 0 1-4.08 0 .9.9 0 0 0-1.23.27.9.9 0 0 0 .3 1.22 5.8 5.8 0 0 0 1.77.72l-1.69 1.69a.89.89 0 0 0 0 1.25c.18.18.4.25.63.25.24 0 .46-.09.64-.25l1.67-1.67 1.67 1.67a.89.89 0 0 0 1.25-1.25l-1.73-1.67Z" fill="#BDBDBD"></path></svg><svg viewBox="0 0 40 40" fill="none" id="social-pinterest"><path d="M20 9a11 11 0 0 0-4 21.25c-.1-.87-.2-2.21.03-3.16l1.29-5.47s-.33-.66-.33-1.63c0-1.53.89-2.67 2-2.67.93 0 1.38.7 1.38 1.54 0 .95-.6 2.36-.9 3.67-.27 1.1.54 1.99 1.62 1.99 1.96 0 3.46-2.07 3.46-5.04 0-2.64-1.9-4.48-4.6-4.48A4.76 4.76 0 0 0 15 19.78c0 .94.36 1.96.82 2.5.09.12.1.21.07.32l-.3 1.25c-.05.2-.16.24-.37.15-1.38-.64-2.23-2.65-2.23-4.26 0-3.47 2.52-6.66 7.26-6.66 3.82 0 6.78 2.72 6.78 6.35 0 3.8-2.39 6.84-5.7 6.84-1.12 0-2.17-.58-2.52-1.26l-.69 2.62a12.3 12.3 0 0 1-1.37 2.88A11 11 0 1 0 20 9Z" fill="#BDBDBD"></path></svg><svg viewBox="0 0 40 40" fill="none" id="social-vk"><path fill-rule="evenodd" clip-rule="evenodd" d="M11.4 11.4C10 12.82 10 15.08 10 19.6v.8c0 4.53 0 6.79 1.4 8.2 1.41 1.4 3.67 1.4 8.2 1.4h.8c4.53 0 6.79 0 8.2-1.4 1.4-1.41 1.4-3.67 1.4-8.2v-.8c0-4.53 0-6.79-1.4-8.2-1.41-1.4-3.67-1.4-8.2-1.4h-.8c-4.53 0-6.79 0-8.2 1.4Zm1.97 4.68c.11 5.2 2.71 8.33 7.27 8.33h.26v-2.98a4.11 4.11 0 0 1 3.45 2.98h2.37a6.58 6.58 0 0 0-3.43-4.18 6.35 6.35 0 0 0 2.93-4.15h-2.15c-.47 1.65-1.85 3.15-3.17 3.3v-3.3h-2.15v5.77c-1.33-.33-3.02-1.95-3.1-5.77h-2.28Z" fill="#BDBDBD"></path></svg><svg viewBox="0 0 13 16" fill="none" id="tel"><path fill-rule="evenodd" clip-rule="evenodd" d="M1.48 1.49A2.7 2.7 0 0 0 .05 4.32L.4 6.09c.93 3.13 2.5 5.77 4.83 8.11l1.4 1.2c.86.72 2.17.8 3.24.2l2.23-1.25c.88-.49 1.17-1.53.63-2.26L10.8 9.5c-.52-.7-1.6-.82-2.37-.26l-1.38.99a5.23 5.23 0 0 1-2.17-3.67l1.56-.66c.9-.37 1.33-1.33.96-2.11L6.04.85C5.66.03 4.58-.25 3.7.25L1.48 1.48Zm-.2 2.53c-.12-.6.2-1.22.78-1.55L4.3 1.23c.22-.13.5-.06.59.15L6.24 4.3c.1.2-.02.43-.24.53L3.57 5.86l.02.42a6.28 6.28 0 0 0 3.07 5.16l.36.22 2.13-1.53c.2-.14.46-.11.59.06l1.93 2.61c.14.19.07.45-.15.57l-2.23 1.25c-.59.33-1.3.28-1.77-.12l-1.4-1.19A20.91 20.91 0 0 1 1.64 5.8l-.36-1.77Z" fill="#7859CF"></path></svg></svg>