<svg xmlns="http://www.w3.org/2000/svg"><style>:root{visibility:hidden}:target{visibility:visible}</style><svg viewBox="0 0 11 20" fill="none" id="arrow-left"><path fill-rule="evenodd" clip-rule="evenodd" d="M9.72 0 11 1.32 2.57 10 11 18.68 9.72 20 0 10 9.72 0Z" fill="#7859CF"></path></svg><svg viewBox="0 0 16 16" fill="none" id="cart"><path fill-rule="evenodd" clip-rule="evenodd" d="m5.66 3.88.23 2.79h4.22l.23-2.8a2.35 2.35 0 1 0-4.68 0Zm5.78 2.79.23-2.68a3.68 3.68 0 1 0-7.34 0l.23 2.68H0L.19 8l.82 5.71A2.67 2.67 0 0 0 3.65 16h8.7c1.33 0 2.46-.98 2.64-2.29L15.81 8 16 6.67h-4.55ZM11.34 8h-.06l-.22 2.67h3.02L14.46 8h-3.13Zm-1.4 0H6.06l.22 2.67h3.44L9.94 8ZM4.72 8H1.54l.38 2.67h3.02L4.72 8Zm1.9 6.67L6.38 12H9.6l-.22 2.67H6.6ZM10.94 12l-.23 2.67h1.63c.67 0 1.23-.5 1.32-1.15L13.9 12h-2.94Zm-5.9 0 .23 2.67H3.65c-.67 0-1.23-.5-1.32-1.15L2.1 12h2.94Z" fill="#333333"></path></svg><svg viewBox="0 0 16 16" fill="none" id="cross"><path fill-rule="evenodd" clip-rule="evenodd" d="M7.03 8 2 2.97 2.97 2 8 7.03 13.03 2l.97.97L8.97 8 14 13.03l-.97.97L8 8.97 2.97 14 2 13.03 7.03 8Z" fill="#333333"></path></svg><svg viewBox="0 0 16 12" fill="none" id="menu"><path fill-rule="evenodd" clip-rule="evenodd" d="M0 0h16v1.5H0V0Zm0 5.25h16v1.5H0v-1.5Zm16 5.25H0V12h16v-1.5Z" fill="#333333"></path></svg><svg viewBox="0 0 16 16" fill="none" id="profile"><path fill-rule="evenodd" clip-rule="evenodd" d="M10.67 4a2.67 2.67 0 1 1-5.34 0 2.67 2.67 0 0 1 5.34 0ZM12 4a4 4 0 1 1-8 0 4 4 0 0 1 8 0Zm-8.8 8.31A7.55 7.55 0 0 1 8 10.67c1.84 0 3.56.6 4.8 1.64A4.83 4.83 0 0 1 14.67 16H16c0-1.77-.84-3.46-2.34-4.71A8.88 8.88 0 0 0 8 9.33c-2.12 0-4.16.7-5.66 1.96A6.16 6.16 0 0 0 0 16h1.33c0-1.33.63-2.66 1.87-3.69Z" fill="#333333"></path></svg></svg>